HIERARCHY
ROOT joint_Root
{
	OFFSET 0.0 0.0 0.0
	CHANNELS 6 Xposition Yposition Zposition Zrotation Xrotation Yrotation 
	JOINT Hips
	{
		OFFSET -17.1583 93.1646 452.98
		CHANNELS 6 Xposition Yposition Zposition Zrotation Xrotation Yrotation 
		JOINT Spine
		{
			OFFSET 15.7357 0.0 0.0
			CHANNELS 6 Xposition Yposition Zposition Zrotation Xrotation Yrotation 
			JOINT Chest
			{
				OFFSET 8.98455 -0.406207 0.0
				CHANNELS 6 Xposition Yposition Zposition Zrotation Xrotation Yrotation 
				JOINT Neck
				{
					OFFSET 16.3773 0.0 0.0
					CHANNELS 6 Xposition Yposition Zposition Zrotation Xrotation Yrotation 
					JOINT Head
					{
						OFFSET 6.45672 0.0 0.0
						CHANNELS 6 Xposition Yposition Zposition Zrotation Xrotation Yrotation 
						End Site
						{
							OFFSET 0.0 0.0 0.0
						}
					}
				}
				JOINT Shoulder_L
				{
					OFFSET 12.9942 -0.242716 4.98039
					CHANNELS 6 Xposition Yposition Zposition Zrotation Xrotation Yrotation 
					JOINT UpperArm_L
					{
						OFFSET 5.34809 0.0 0.0
						CHANNELS 6 Xposition Yposition Zposition Zrotation Xrotation Yrotation 
						JOINT LowerArm_L
						{
							OFFSET 24.3286 1.87007e-05 0.0
							CHANNELS 6 Xposition Yposition Zposition Zrotation Xrotation Yrotation 
							JOINT Hand_L
							{
								OFFSET 22.2916 0.0 0.0
								CHANNELS 6 Xposition Yposition Zposition Zrotation Xrotation Yrotation 
								End Site
								{
									OFFSET 0.0 0.0 0.0
								}
							}
						}
					}
				}
				JOINT Shoulder_R
				{
					OFFSET 12.9945 -0.242716 -4.98039
					CHANNELS 6 Xposition Yposition Zposition Zrotation Xrotation Yrotation 
					JOINT UpperArm_R
					{
						OFFSET -5.34813 0.0 0.0
						CHANNELS 6 Xposition Yposition Zposition Zrotation Xrotation Yrotation 
						JOINT LowerArm_R
						{
							OFFSET -24.3289 0.000322201 0.0
							CHANNELS 6 Xposition Yposition Zposition Zrotation Xrotation Yrotation 
							JOINT Hand_R
							{
								OFFSET -22.2915 -0.000108084 0.0
								CHANNELS 6 Xposition Yposition Zposition Zrotation Xrotation Yrotation 
								End Site
								{
									OFFSET 0.0 0.0 0.0
								}
							}
						}
					}
				}
			}
		}
		JOINT UpperLeg_L
		{
			OFFSET -2.19248 -6.46944 0.0
			CHANNELS 6 Xposition Yposition Zposition Zrotation Xrotation Yrotation 
			JOINT LowerLeg_L
			{
				OFFSET 39.0811 0.0 -1.23785e-05
				CHANNELS 6 Xposition Yposition Zposition Zrotation Xrotation Yrotation 
				JOINT Foot_L
				{
					OFFSET 40.9854 0.0 -1.26872e-05
					CHANNELS 6 Xposition Yposition Zposition Zrotation Xrotation Yrotation 
					JOINT Toes_L
					{
						OFFSET 11.7543 0.0 0.0
						CHANNELS 6 Xposition Yposition Zposition Zrotation Xrotation Yrotation 
						End Site
						{
							OFFSET 0.0 0.0 0.0
						}
					}
				}
			}
		}
		JOINT UpperLeg_R
		{
			OFFSET -2.19251 6.46944 0.0
			CHANNELS 6 Xposition Yposition Zposition Zrotation Xrotation Yrotation 
			JOINT LowerLeg_R
			{
				OFFSET -39.0811 -0.00228153 -0.0401928
				CHANNELS 6 Xposition Yposition Zposition Zrotation Xrotation Yrotation 
				JOINT Foot_R
				{
					OFFSET -40.9854 0.0 0.0
					CHANNELS 6 Xposition Yposition Zposition Zrotation Xrotation Yrotation 
					JOINT Toes_R
					{
						OFFSET -11.7543 0.0 0.0
						CHANNELS 6 Xposition Yposition Zposition Zrotation Xrotation Yrotation 
						End Site
						{
							OFFSET 0.0 0.0 0.0
						}
					}
				}
			}
		}
	}
}
MOTION
Frames:	4
Frame Time:	0.0333333
0.000000 0.000000 0.000000 0.000000 0.000000 -0.000000 0.499056 92.892900 0.533097 88.685600 2.681130 4.279770 15.735700 0.000005 -0.000001 94.524800 85.897000 -98.927600 8.984550 -0.406207 -0.000000 0.465408 0.927161 -8.803100 16.377300 -0.000001 -0.000001 2.523470 -1.214610 -6.339830 6.456720 -0.000001 -0.000000 2.243810 0.609470 -19.185600 12.994200 -0.242716 4.980390 -92.907000 8.015050 -69.989100 5.348090 -0.000007 -0.000001 -61.175000 -2.196300 1.089050 24.328600 0.000019 0.000005 13.206700 22.826700 -31.169900 22.291600 -0.000001 0.000005 0.783867 4.937110 8.629220 12.994500 -0.242716 -4.980390 94.392800 -8.809760 -63.362500 -5.348130 -0.000001 -0.000004 -29.358100 -70.385600 -60.224100 -24.328900 0.000322 -0.000009 6.214210 7.128960 -41.270200 -22.291500 -0.000108 -0.000004 54.735800 5.676330 -18.546500 -2.192480 -6.469440 -0.000000 -174.790000 -2.566540 1.209880 39.081100 -0.000007 -0.000012 0.006289 -0.020155 17.331100 40.985400 -0.000006 -0.000013 0.470658 13.741800 -69.105000 11.754300 -0.000000 0.000003 -0.002720 0.205026 -8.257770 -2.192510 6.469440 -0.000001 175.020000 7.951350 -175.812000 -39.081100 -0.002282 -0.040193 0.003574 -0.001000 13.577900 -40.985400 0.000008 0.000006 -8.600510 4.778170 -68.035000 -11.754300 -0.000006 -0.000006 -0.012656 0.290184 -4.778110
0.000000 0.000000 0.000000 0.000000 0.000000 -0.000000 0.521652 92.897800 0.467960 88.624100 2.275730 4.422870 15.735700 0.000005 -0.000001 94.909200 85.765700 -99.329300 8.984550 -0.406207 -0.000000 0.725316 0.995497 -8.840170 16.377300 -0.000001 -0.000001 2.111390 -1.293730 -6.066180 6.456720 -0.000001 -0.000000 2.065770 0.557017 -19.181300 12.994200 -0.242716 4.980390 -92.879600 8.005840 -70.142400 5.348090 -0.000007 -0.000001 -61.542500 -1.503350 0.771143 24.328600 0.000019 0.000005 13.337900 23.032700 -31.214400 22.291600 -0.000001 0.000005 0.526100 4.936070 8.650330 12.994500 -0.242716 -4.980390 94.406800 -8.875320 -63.457800 -5.348130 -0.000001 -0.000004 -26.834800 -69.418000 -58.422700 -24.328900 0.000322 -0.000009 8.917520 11.037900 -39.339600 -22.291500 -0.000108 -0.000004 58.090000 5.675960 -18.467200 -2.192480 -6.469440 -0.000000 -174.733000 -2.756040 1.361560 39.081100 -0.000007 -0.000012 0.006632 -0.021236 17.345100 40.985400 -0.000006 -0.000013 0.462625 13.595200 -69.038100 11.754300 -0.000000 0.000003 -0.002572 0.203290 -8.328380 -2.192510 6.469440 -0.000001 175.020000 7.865730 -175.764000 -39.081100 -0.002282 -0.040193 0.002457 0.003631 13.556200 -40.985400 0.000008 0.000006 -8.671390 5.106890 -67.847900 -11.754300 -0.000006 -0.000006 -0.012484 0.289013 -4.826090
0.000000 0.000000 0.000000 0.000000 0.000000 -0.000000 0.569499 92.899900 0.423686 88.576100 1.928440 4.507930 15.735700 0.000005 -0.000001 95.618400 85.666800 -100.096000 8.984550 -0.406207 -0.000000 0.918278 1.115170 -8.957840 16.377300 -0.000001 -0.000001 1.797850 -1.327790 -6.028920 6.456720 -0.000001 -0.000000 1.817470 0.514117 -19.116300 12.994200 -0.242716 4.980390 -92.870300 8.003670 -70.196200 5.348090 -0.000007 -0.000001 -61.835200 -0.956386 0.502206 24.328600 0.000019 0.000005 13.624900 23.579800 -31.212700 22.291600 -0.000001 0.000005 0.350137 4.935250 8.667040 12.994500 -0.242716 -4.980390 94.368000 -8.838480 -63.566300 -5.348130 -0.000001 -0.000004 -25.183400 -68.128100 -56.777700 -24.328900 0.000322 -0.000009 6.897570 10.160400 -34.442300 -22.291500 -0.000108 -0.000004 56.334000 5.674640 -18.176800 -2.192480 -6.469440 -0.000000 -174.726000 -2.914750 1.453500 39.081100 -0.000007 -0.000012 0.008601 -0.027450 17.398600 40.985400 -0.000006 -0.000013 0.471516 13.368300 -69.070400 11.754300 -0.000000 0.000003 -0.002744 0.205306 -8.246380 -2.192510 6.469440 -0.000001 174.996000 7.800370 -175.743000 -39.081100 -0.002282 -0.040193 0.001663 0.006936 13.531400 -40.985400 0.000008 0.000006 -8.739200 5.403310 -67.746900 -11.754300 -0.000006 -0.000006 -0.012749 0.290812 -4.752370
0.000000 0.000000 0.000000 0.000000 0.000000 -0.000000 0.629764 92.892300 0.421231 88.520500 1.690840 4.575770 15.735700 0.000005 -0.000001 96.119600 85.569500 -100.665000 8.984550 -0.406207 -0.000000 1.108950 1.207730 -9.096150 16.377300 -0.000001 -0.000001 1.660110 -1.177270 -6.376410 6.456720 -0.000001 -0.000000 1.438660 0.609791 -19.105100 12.994200 -0.242716 4.980390 -92.889700 8.049820 -70.177500 5.348090 -0.000007 -0.000001 -62.044500 -0.669055 0.370456 24.328600 0.000019 0.000005 13.727900 23.795700 -31.193200 22.291600 -0.000001 0.000005 0.245679 4.929020 8.793940 12.994500 -0.242716 -4.980390 94.323800 -8.782690 -63.656300 -5.348130 -0.000001 -0.000004 -25.483300 -66.754200 -56.271000 -24.328900 0.000322 -0.000009 3.435870 6.618620 -27.516900 -22.291500 -0.000108 -0.000004 52.650800 5.664970 -16.643400 -2.192480 -6.469440 -0.000000 -174.736000 -2.936780 1.480300 39.081100 -0.000007 -0.000012 0.009933 -0.031430 17.538700 40.985400 -0.000006 -0.000013 0.500550 13.120100 -69.131800 11.754300 -0.000000 0.000003 -0.002677 0.204526 -8.278110 -2.192510 6.469440 -0.000001 174.983000 7.753290 -175.713000 -39.081100 -0.002282 -0.040193 0.001034 0.009555 13.526400 -40.985400 0.000008 0.000006 -8.811600 5.622900 -67.649200 -11.754300 -0.000006 -0.000006 -0.012529 0.289322 -4.813410
